<svg width="20" height="14" viewBox="0 0 20 14" fill="none" xmlns="http://www.w3.org/2000/svg">
<path d="M19.8418 1.218C19.7423 0.98329 19.5983 0.770041 19.4178 0.590004C19.2323 0.402627 19.0114 0.253979 18.768 0.152694C18.5246 0.051409 18.2634 -0.000492994 17.9998 3.52907e-06H5.99977C5.70277 3.52907e-06 5.42177 0.132004 5.23077 0.359004L0.230773 6.359C-0.0782266 6.73 -0.0782266 7.269 0.230773 7.64L5.23077 13.64C5.42177 13.868 5.70277 14 5.99977 14H17.9998C18.2616 14.0012 18.5211 13.9504 18.7632 13.8505C19.0052 13.7506 19.225 13.6036 19.4098 13.418C19.5971 13.2325 19.7458 13.0116 19.8471 12.7682C19.9484 12.5248 20.0003 12.2637 19.9998 12V2C19.9998 1.734 19.9478 1.475 19.8418 1.218Z" fill="#0A277F"/>
</svg>
