<svg width="40" height="36" viewBox="0 0 40 36" fill="none" xmlns="http://www.w3.org/2000/svg">
<path d="M19.9836 27C26.3969 27 28.0002 21 28.0002 21H11.9671C11.9671 21 13.5704 27 19.9836 27Z" fill="black"/>
<path d="M19.9836 33C28.8242 33 36.0167 26.271 36.0167 18C36.0167 9.729 28.8242 3 19.9836 3C11.143 3 3.95056 9.729 3.95056 18C3.95056 26.271 11.143 33 19.9836 33ZM19.9836 6C27.0558 6 32.8101 11.3835 32.8101 18C32.8101 24.6165 27.0558 30 19.9836 30C12.9114 30 7.15717 24.6165 7.15717 18C7.15717 11.3835 12.9114 6 19.9836 6Z" fill="black"/>
<path d="M14.4282 18.951L17.7149 15.8265C17.9385 15.6174 18.1153 15.3688 18.235 15.0951C18.3548 14.8214 18.4151 14.5281 18.4124 14.2324C18.4097 13.9366 18.3441 13.6444 18.2194 13.3726C18.0947 13.1008 17.9134 12.855 17.6861 12.6495C17.2482 12.2425 16.6589 12.0098 16.0416 12.0003C15.4244 11.9908 14.8272 12.2052 14.3753 12.5985C13.9165 12.2102 13.3145 12.0038 12.6962 12.0228C12.0779 12.0419 11.4917 12.2849 11.0612 12.7005C10.1217 13.6005 10.1329 14.9955 11.0917 15.876L14.4282 18.951ZM25.6513 18.951L28.9381 15.8265C29.1616 15.6174 29.3384 15.3688 29.4582 15.0951C29.5779 14.8214 29.6382 14.5281 29.6355 14.2324C29.6328 13.9366 29.5672 13.6444 29.4425 13.3726C29.3178 13.1008 29.1365 12.855 28.9092 12.6495C28.4713 12.2425 27.882 12.0098 27.2648 12.0003C26.6476 11.9908 26.0504 12.2052 25.5984 12.5985C25.1398 12.2096 24.5375 12.0026 23.9189 12.0214C23.3002 12.0401 22.7135 12.2831 22.2828 12.699C21.3432 13.599 21.3544 14.994 22.3132 15.8745L25.6513 18.951Z" fill="black"/>
</svg>
