<svg width="20" height="14" viewBox="0 0 20 14" fill="none" xmlns="http://www.w3.org/2000/svg">
<path d="M19.0624 0.941769L19.0647 0.944013C19.199 1.07796 19.3062 1.23651 19.3805 1.41099C19.4618 1.6089 19.4998 1.80252 19.4998 2V12V12.0009C19.5001 12.1984 19.4613 12.3939 19.3854 12.5761C19.3096 12.7584 19.1983 12.9238 19.058 13.0627L19.0555 13.0652C18.9174 13.2038 18.7532 13.3137 18.5724 13.3883C18.3916 13.4629 18.1977 13.5009 18.0021 13.5H17.9998H5.99977C5.85198 13.5 5.71113 13.4345 5.61445 13.3194C5.61432 13.3192 5.61419 13.3191 5.61406 13.3189L0.614969 7.32001C0.460375 7.1344 0.460375 6.86461 0.614969 6.67899L5.61336 0.680916C5.61357 0.680663 5.61379 0.680409 5.614 0.680157C5.71081 0.565546 5.85195 0.500004 5.99977 0.500004L17.9998 0.500004L18.0007 0.500003C18.1981 0.499631 18.3936 0.538492 18.5759 0.614329C18.7582 0.690165 18.9235 0.801465 19.0624 0.941769ZM16.0603 9.64656L16.4139 9.293L16.0603 8.93945L14.1209 7L16.0603 5.06056L16.4139 4.707L16.0603 4.35345L14.6463 2.93945L14.2928 2.5859L13.9392 2.93945L11.9998 4.8789L10.0603 2.93945L9.70677 2.5859L9.35322 2.93945L7.93922 4.35345L7.58567 4.707L7.93922 5.06056L9.87867 7L7.93922 8.93945L7.58567 9.293L7.93922 9.64656L9.35322 11.0606L9.70677 11.4141L10.0603 11.0606L11.9998 9.12111L13.9392 11.0606L14.2928 11.4141L14.6463 11.0606L16.0603 9.64656Z" fill="#0A277F" stroke="#0A277F"/>
</svg>
