<svg width="39" height="36" viewBox="0 0 39 36" fill="none" xmlns="http://www.w3.org/2000/svg">
<path d="M19.7275 2C16.345 2 13.0386 2.93838 10.2262 4.69649C7.41377 6.45459 5.22177 8.95345 3.92736 11.8771C2.63296 14.8007 2.29428 18.0177 2.95417 21.1214C3.61405 24.2251 5.24285 27.0761 7.6346 29.3137C10.0263 31.5513 13.0736 33.0752 16.3911 33.6926C19.7085 34.3099 23.1471 33.9931 26.2721 32.7821C29.3971 31.5711 32.068 29.5203 33.9472 26.8891C35.8264 24.2579 36.8294 21.1645 36.8294 18C36.8294 13.7565 35.0276 9.68687 31.8204 6.68629C28.6131 3.68571 24.2632 2 19.7275 2V2ZM19.7275 32C16.7678 32 13.8747 31.1789 11.4138 29.6406C8.95298 28.1022 7.03498 25.9157 5.90238 23.3576C4.76978 20.7994 4.47343 17.9845 5.05083 15.2687C5.62823 12.553 7.05343 10.0584 9.14621 8.1005C11.239 6.14257 13.9054 4.8092 16.8081 4.26901C19.7109 3.72881 22.7197 4.00606 25.454 5.06569C28.1884 6.12531 30.5255 7.91973 32.1698 10.222C33.814 12.5243 34.6917 15.2311 34.6917 18C34.6917 21.713 33.1151 25.274 30.3088 27.8995C27.5024 30.525 23.6962 32 19.7275 32Z" fill="black"/>
<path d="M27.3806 16.08C28.4431 16.08 29.3045 15.2741 29.3045 14.28C29.3045 13.2859 28.4431 12.48 27.3806 12.48C26.318 12.48 25.4566 13.2859 25.4566 14.28C25.4566 15.2741 26.318 16.08 27.3806 16.08Z" fill="black"/>
<path d="M12.6836 16.08C13.7462 16.08 14.6076 15.2741 14.6076 14.28C14.6076 13.2859 13.7462 12.48 12.6836 12.48C11.621 12.48 10.7596 13.2859 10.7596 14.28C10.7596 15.2741 11.621 16.08 12.6836 16.08Z" fill="black"/>
<path d="M19.8985 20C18.3651 20.0002 16.8539 20.3434 15.4911 21.001C14.1282 21.6585 12.9531 22.6113 12.0637 23.78C11.8993 23.9962 11.8334 24.2646 11.8805 24.5262C11.9276 24.7878 12.0838 25.0212 12.3149 25.175C12.5459 25.3288 12.8328 25.3905 13.1124 25.3464C13.3921 25.3023 13.6415 25.1562 13.8059 24.94C14.4894 24.0419 15.3899 23.3075 16.4341 22.7967C17.4783 22.2859 18.6368 22.013 19.8151 22.0003C20.9934 21.9877 22.1582 22.2355 23.2147 22.7238C24.2712 23.212 25.1895 23.9268 25.8949 24.81C26.065 25.0222 26.3182 25.1624 26.5988 25.1999C26.8794 25.2375 27.1645 25.1691 27.3913 25.01C27.6181 24.8509 27.768 24.614 27.8081 24.3514C27.8482 24.0889 27.7751 23.8222 27.6051 23.61C26.709 22.489 25.5459 21.5791 24.2081 20.9524C22.8703 20.3257 21.3946 19.9996 19.8985 20V20Z" fill="black"/>
</svg>
