<svg width="40" height="36" viewBox="0 0 40 36" fill="none" xmlns="http://www.w3.org/2000/svg">
<g clip-path="url(#clip0_1733_8163)">
<path d="M19.8006 0.5625C9.17228 0.5625 0.560974 8.36719 0.560974 18C0.560974 27.6328 9.17228 35.4375 19.8006 35.4375C30.429 35.4375 39.0403 27.6328 39.0403 18C39.0403 8.36719 30.429 0.5625 19.8006 0.5625ZM30.9721 27.7312V19.6875C30.9721 18.7594 30.1342 18 29.1102 18C28.0861 18 27.2483 18.7594 27.2483 19.6875V30.3328C25.0372 31.4297 22.5004 32.0625 19.8006 32.0625C17.1009 32.0625 14.564 31.4297 12.353 30.3328V19.6875C12.353 18.7594 11.5152 18 10.4911 18C9.46708 18 8.62922 18.7594 8.62922 19.6875V27.7312C5.94498 25.2 4.28478 21.7758 4.28478 18C4.28478 10.2445 11.2436 3.9375 19.8006 3.9375C28.3576 3.9375 35.3165 10.2445 35.3165 18C35.3165 21.7758 33.6563 25.207 30.9721 27.7312ZM16.5268 16.4883C16.8681 16.3195 17.0621 15.968 17 15.6164C16.6897 13.8445 14.3468 12.6562 12.3608 12.6562C10.3748 12.6562 8.0241 13.8445 7.72154 15.6164C7.65948 15.968 7.85343 16.3195 8.19478 16.4883C8.53613 16.657 8.96281 16.6148 9.25761 16.3758L9.99462 15.7781C11.1428 14.85 13.5788 14.85 14.727 15.7781L15.464 16.3758C15.6579 16.5375 16.0768 16.7133 16.5268 16.4883ZM27.2483 12.6562C25.2545 12.6562 22.9116 13.8445 22.609 15.6164C22.547 15.968 22.7409 16.3195 23.0822 16.4883C23.4314 16.657 23.8503 16.6148 24.1451 16.3758L24.8821 15.7781C26.0303 14.85 28.4663 14.85 29.6144 15.7781L30.3514 16.3758C30.5454 16.5305 30.9721 16.7062 31.4143 16.4883C31.7556 16.3195 31.9496 15.968 31.8875 15.6164C31.5849 13.8445 29.242 12.6562 27.2483 12.6562ZM19.8006 19.125C17.4034 19.125 15.4562 21.143 15.4562 23.625C15.4562 26.107 17.4034 28.125 19.8006 28.125C22.1978 28.125 24.1451 26.107 24.1451 23.625C24.1451 21.143 22.1978 19.125 19.8006 19.125Z" fill="black"/>
</g>
<defs>
<clipPath id="clip0_1733_8163">
<rect width="38.4793" height="36" fill="white" transform="translate(0.560974)"/>
</clipPath>
</defs>
</svg>
