<svg width="39" height="36" viewBox="0 0 39 36" fill="none" xmlns="http://www.w3.org/2000/svg">
<path d="M19.5689 3C10.7283 3 3.53589 9.729 3.53589 18C3.53589 26.271 10.7283 33 19.5689 33C28.4096 33 35.602 26.271 35.602 18C35.602 9.729 28.4096 3 19.5689 3ZM19.5689 30C12.4968 30 6.7425 24.6165 6.7425 18C6.7425 11.3835 12.4968 6 19.5689 6C26.6411 6 32.3954 11.3835 32.3954 18C32.3954 24.6165 26.6411 30 19.5689 30Z" fill="black"/>
<path d="M24.1047 22.242C23.5186 22.7885 22.8264 23.2253 22.0653 23.529C20.6949 24.0703 19.1662 24.1493 17.7404 23.7525C16.3147 23.3558 15.0806 22.5079 14.2492 21.354L11.5909 23.0325C12.2842 23.9897 13.1663 24.8144 14.1898 25.4625C15.2314 26.1215 16.4017 26.5818 17.6337 26.817C18.9113 27.0608 20.2282 27.0608 21.5057 26.817C22.7376 26.5814 23.9079 26.1212 24.9496 25.4625C25.4515 25.1445 25.9308 24.7755 26.3702 24.366C26.8063 23.9595 27.2039 23.5095 27.547 23.0325L24.8887 21.354C24.6583 21.6727 24.3957 21.9701 24.1047 22.242Z" fill="black"/>
<path d="M13.9574 18C15.2856 18 16.3623 16.9926 16.3623 15.75C16.3623 14.5074 15.2856 13.5 13.9574 13.5C12.6292 13.5 11.5524 14.5074 11.5524 15.75C11.5524 16.9926 12.6292 18 13.9574 18Z" fill="black"/>
<path d="M25.1693 17.979C26.4913 17.979 27.563 16.9763 27.563 15.7395C27.563 14.5027 26.4913 13.5 25.1693 13.5C23.8473 13.5 22.7756 14.5027 22.7756 15.7395C22.7756 16.9763 23.8473 17.979 25.1693 17.979Z" fill="black"/>
</svg>
