<svg width="24" height="24" viewBox="0 0 24 24" fill="none" xmlns="http://www.w3.org/2000/svg">
<g clip-path="url(#clip0_955_7323)">
<path d="M17.8002 19.817L15.6282 20.955C15.5638 20.9885 15.4913 21.0035 15.4188 20.9982C15.3463 20.9929 15.2767 20.9676 15.2178 20.9251C15.1589 20.8826 15.113 20.8245 15.0851 20.7574C15.0573 20.6903 15.0487 20.6167 15.0602 20.545L15.4752 18.134L13.7182 16.427C13.6658 16.3763 13.6287 16.3119 13.6111 16.2411C13.5935 16.1703 13.5962 16.096 13.6188 16.0266C13.6414 15.9573 13.6831 15.8957 13.7391 15.8489C13.795 15.8021 13.863 15.772 13.9352 15.762L16.3632 15.41L17.4492 13.217C17.4817 13.1517 17.5318 13.0967 17.5938 13.0583C17.6558 13.0199 17.7273 12.9995 17.8002 12.9995C17.8732 12.9995 17.9447 13.0199 18.0067 13.0583C18.0687 13.0967 18.1188 13.1517 18.1512 13.217L19.2372 15.41L21.6652 15.762C21.7373 15.7723 21.805 15.8027 21.8607 15.8495C21.9164 15.8963 21.9579 15.9578 21.9805 16.027C22.003 16.0962 22.0058 16.1703 21.9885 16.241C21.9711 16.3117 21.9343 16.3761 21.8822 16.427L20.1252 18.134L20.5392 20.544C20.5517 20.6158 20.5437 20.6898 20.5162 20.7573C20.4887 20.8249 20.4429 20.8834 20.3838 20.9262C20.3248 20.969 20.2549 20.9944 20.1822 20.9995C20.1094 21.0046 20.0367 20.9891 19.9722 20.955L17.8002 19.817V19.817Z" stroke="black" stroke-width="2" stroke-linecap="round" stroke-linejoin="round"/>
<path d="M6.19965 19.817L4.02765 20.955C3.9632 20.9885 3.89068 21.0035 3.81821 20.9982C3.74574 20.9929 3.67616 20.9676 3.61724 20.9251C3.55832 20.8826 3.51239 20.8245 3.48456 20.7574C3.45673 20.6903 3.44811 20.6167 3.45965 20.545L3.87465 18.134L2.11765 16.427C2.06521 16.3763 2.02808 16.3119 2.01049 16.2411C1.99291 16.1703 1.99559 16.096 2.01821 16.0266C2.04084 15.9573 2.08251 15.8957 2.13846 15.8489C2.19442 15.8021 2.2624 15.772 2.33465 15.762L4.76265 15.41L5.84865 13.217C5.88113 13.1517 5.93119 13.0967 5.9932 13.0583C6.05521 13.0199 6.12671 12.9995 6.19965 12.9995C6.2726 12.9995 6.3441 13.0199 6.40611 13.0583C6.46811 13.0967 6.51817 13.1517 6.55065 13.217L7.63665 15.41L10.0647 15.762C10.1367 15.7723 10.2044 15.8027 10.2601 15.8495C10.3158 15.8963 10.3573 15.9578 10.3799 16.027C10.4025 16.0962 10.4052 16.1703 10.3879 16.241C10.3705 16.3117 10.3337 16.3761 10.2817 16.427L8.52465 18.134L8.93865 20.544C8.95108 20.6158 8.9431 20.6898 8.91563 20.7573C8.88816 20.8249 8.84229 20.8834 8.78324 20.9262C8.72419 20.969 8.65432 20.9944 8.58157 20.9995C8.50881 21.0046 8.43609 20.9891 8.37165 20.955L6.19965 19.817V19.817Z" stroke="black" stroke-width="2" stroke-linecap="round" stroke-linejoin="round"/>
<path d="M12.0004 9.81698L9.82843 10.955C9.76398 10.9885 9.69147 11.0035 9.61899 10.9982C9.54652 10.9929 9.47694 10.9676 9.41802 10.9251C9.35911 10.8826 9.31317 10.8245 9.28534 10.7574C9.25751 10.6903 9.24889 10.6167 9.26043 10.545L9.67543 8.13398L7.91843 6.42698C7.86599 6.37628 7.82886 6.31186 7.81128 6.24107C7.79369 6.17027 7.79637 6.09597 7.819 6.02662C7.84162 5.95728 7.88329 5.89569 7.93925 5.8489C7.9952 5.8021 8.06318 5.77198 8.13543 5.76198L10.5634 5.40998L11.6494 3.21698C11.6819 3.15166 11.732 3.0967 11.794 3.05828C11.856 3.01987 11.9275 2.99951 12.0004 2.99951C12.0734 2.99951 12.1449 3.01987 12.2069 3.05828C12.2689 3.0967 12.319 3.15166 12.3514 3.21698L13.4374 5.40998L15.8654 5.76198C15.9375 5.77234 16.0052 5.80265 16.0609 5.84949C16.1166 5.89633 16.1581 5.95783 16.1807 6.02702C16.2032 6.09621 16.206 6.17034 16.1886 6.24102C16.1713 6.3117 16.1345 6.37612 16.0824 6.42698L14.3254 8.13398L14.7394 10.544C14.7519 10.6158 14.7439 10.6898 14.7164 10.7573C14.6889 10.8249 14.6431 10.8834 14.584 10.9262C14.525 10.969 14.4551 10.9944 14.3823 10.9995C14.3096 11.0046 14.2369 10.9891 14.1724 10.955L12.0004 9.81698V9.81698Z" stroke="black" stroke-width="2" stroke-linecap="round" stroke-linejoin="round"/>
</g>
<defs>
<clipPath id="clip0_955_7323">
<rect width="24" height="24" fill="white"/>
</clipPath>
</defs>
</svg>
