<svg width="40" height="36" viewBox="0 0 40 36" fill="none" xmlns="http://www.w3.org/2000/svg">
<path d="M19.7763 3C10.9357 3 3.74323 9.729 3.74323 18C3.74323 26.271 10.9357 33 19.7763 33C28.6169 33 35.8093 26.271 35.8093 18C35.8093 9.729 28.6169 3 19.7763 3ZM19.7763 30C12.7041 30 6.94984 24.6165 6.94984 18C6.94984 11.3835 12.7041 6 19.7763 6C26.8485 6 32.6027 11.3835 32.6027 18C32.6027 24.6165 26.8485 30 19.7763 30Z" fill="black"/>
<path d="M24.3104 22.242C23.4254 23.0722 22.2992 23.6407 21.0717 23.877C20.2166 24.0375 19.3359 24.0375 18.4808 23.877C18.0695 23.7971 17.6674 23.6806 17.2799 23.529C16.8995 23.377 16.5351 23.1922 16.1913 22.977C15.5096 22.5422 14.9212 21.9917 14.4565 21.354L11.7982 23.0295C12.1429 23.508 12.5389 23.958 12.9734 24.363C13.8655 25.2005 14.9255 25.865 16.0926 26.3185C17.2597 26.7721 18.511 27.0057 19.7748 27.0059C21.0386 27.0062 22.29 26.7732 23.4573 26.3202C24.6247 25.8672 25.685 25.2031 26.5775 24.366C27.0136 23.9595 27.4112 23.5095 27.7543 23.0295L25.096 21.354C24.8668 21.6705 24.6038 21.969 24.3104 22.242Z" fill="black"/>
<path d="M14.1647 18C15.4929 18 16.5697 16.9926 16.5697 15.75C16.5697 14.5074 15.4929 13.5 14.1647 13.5C12.8365 13.5 11.7598 14.5074 11.7598 15.75C11.7598 16.9926 12.8365 18 14.1647 18Z" fill="black"/>
<path d="M25.3878 15C22.1812 15 21.3796 18 21.3796 18H29.3961C29.3961 18 28.5929 15 25.3878 15Z" fill="black"/>
</svg>
